<svg width="30" height="25" viewBox="0 0 30 25" fill="none" xmlns="http://www.w3.org/2000/svg">
<path d="M6.5625 11.7188H25.3125C25.5611 11.7188 25.7996 11.8011 25.9754 11.9476C26.1512 12.0941 26.25 12.2928 26.25 12.5C26.25 12.7072 26.1512 12.9059 25.9754 13.0524C25.7996 13.1989 25.5611 13.2812 25.3125 13.2812H6.5625C6.31386 13.2812 6.0754 13.1989 5.89959 13.0524C5.72377 12.9059 5.625 12.7072 5.625 12.5C5.625 12.2928 5.72377 12.0941 5.89959 11.9476C6.0754 11.8011 6.31386 11.7188 6.5625 11.7188Z" fill="#333333"/>
<path d="M6.95059 12.5L14.7262 18.9781C14.9023 19.1248 15.0012 19.3238 15.0012 19.5312C15.0012 19.7387 14.9023 19.9377 14.7262 20.0844C14.5502 20.2311 14.3114 20.3135 14.0625 20.3135C13.8135 20.3135 13.5748 20.2311 13.3987 20.0844L4.96122 13.0531C4.87391 12.9805 4.80464 12.8943 4.75738 12.7994C4.71012 12.7045 4.68579 12.6028 4.68579 12.5C4.68579 12.3972 4.71012 12.2955 4.75738 12.2006C4.80464 12.1057 4.87391 12.0194 4.96122 11.9469L13.3987 4.91562C13.5748 4.76892 13.8135 4.68651 14.0625 4.68651C14.3114 4.68651 14.5502 4.76892 14.7262 4.91562C14.9023 5.06232 15.0012 5.26128 15.0012 5.46875C15.0012 5.67621 14.9023 5.87517 14.7262 6.02187L6.95059 12.5Z" fill="#333333"/>
</svg>
