<svg width="26" height="19" viewBox="0 0 26 19" fill="none" xmlns="http://www.w3.org/2000/svg">
<path d="M15.2557 1.87914C14.8772 1.83991 14.3851 1.83869 13.6402 1.83869H13.0017C12.7611 1.83869 12.5304 1.74183 12.3604 1.56942C12.1903 1.39701 12.0947 1.16317 12.0947 0.919345C12.0947 0.675519 12.1903 0.44168 12.3604 0.26927C12.5304 0.0968591 12.7611 0 13.0017 0H13.6849C14.3742 0 14.9594 -1.37836e-07 15.4431 0.0502574C15.9571 0.104192 16.4335 0.221868 16.8822 0.503801C17.3332 0.785733 17.6488 1.1645 17.927 1.60701C18.1712 1.99682 18.4167 2.48959 18.7009 3.06448H20.0976C20.441 3.06448 20.7566 3.06448 21.019 3.089C21.3032 3.11351 21.6115 3.17358 21.9114 3.34641C22.2404 3.53641 22.5124 3.81222 22.6999 4.14563C22.8704 4.44963 22.9296 4.7622 22.9538 5.05027C22.978 5.31626 22.978 5.6362 22.978 5.98432V6.09832C22.978 6.41703 22.9792 6.7578 22.8776 7.08141C22.8092 7.29823 22.7072 7.50264 22.5753 7.68695C22.3794 7.96152 22.1085 8.16378 21.8546 8.35133L21.7917 8.39913L21.4568 8.64919L22.0457 9.84312C22.8721 9.95122 23.6531 10.288 24.3031 10.8166C24.953 11.3452 25.4467 12.0451 25.73 12.8395C26.0132 13.6338 26.0751 14.4919 25.9087 15.3196C25.7424 16.1473 25.3543 16.9125 24.7871 17.5312C24.2198 18.1499 23.4954 18.5983 22.6933 18.827C21.8911 19.0557 21.0423 19.056 20.2401 18.8278C19.4378 18.5996 18.7131 18.1517 18.1454 17.5333C17.5778 16.9149 17.1893 16.15 17.0224 15.3224H10.7948C10.5853 16.3616 10.0279 17.2954 9.21698 17.9656C8.40604 18.6359 7.39145 19.0013 6.34512 19C5.2988 18.9987 4.28509 18.6308 3.47577 17.9585C2.66645 17.2863 2.11129 16.3511 1.90436 15.3114C1.36584 15.2565 0.868552 14.9945 0.514749 14.5793C0.160947 14.1641 -0.0224745 13.6273 0.00220267 13.0792V13.0081C0.00220267 12.5975 0.00220266 12.3364 0.0203414 12.1072C0.127806 10.7253 0.718048 9.42773 1.68494 8.44761C2.65183 7.4675 3.93194 6.86918 5.2951 6.76025C5.52123 6.74186 5.7788 6.74186 6.1839 6.74186H7.01829C8.10419 6.74186 9.01113 6.74186 9.72943 6.83992C10.4888 6.94289 11.1745 7.17089 11.7247 7.72985C12.2761 8.28758 12.501 8.98261 12.6026 9.75241C12.6994 10.4805 12.6994 11.3999 12.6994 12.5006V13.4837H17.0224C17.1848 12.68 17.556 11.9349 18.0977 11.3255C18.6394 10.716 19.3319 10.2643 20.1036 10.0172L17.1554 4.04144C16.8217 3.3648 16.6016 2.91984 16.396 2.595C16.2026 2.2861 16.0647 2.15249 15.9293 2.06791C15.795 1.98211 15.6149 1.91714 15.2557 1.87914Z" fill="#333333"/>
</svg>
